<mxfile host="www.draw.io" modified="2020-05-22T08:08:59.263Z" agent="5.0 (Macintosh; Intel Mac OS X 10_13_6) AppleWebKit/537.36 (KHTML, like Gecko) Chrome/81.0.4044.138 Safari/537.36" etag="uOUBHvxJspgnHApqoIZe" version="13.1.3" type="github">
  <diagram id="YHx0XzFwLg9iK7dxzwmQ" name="Page-1">
    <mxGraphModel dx="923" dy="498" grid="1" gridSize="10" guides="1" tooltips="1" connect="1" arrows="1" fold="1" page="1" pageScale="1" pageWidth="827" pageHeight="1169" math="0" shadow="0">
      <root>
        <mxCell id="0" />
        <mxCell id="1" parent="0" />
        <mxCell id="JaR2kYF_nCtYXL50B3zv-1" value="场景按钮类型&amp;nbsp;&lt;span style=&quot;color: rgb(17 , 31 , 44) ; font-family: &amp;#34;helvetica neue&amp;#34; ; font-size: 14px&quot;&gt;Buttontype&lt;/span&gt;&lt;br&gt;CBOH_BUTTONTYPE_3CH" style="rounded=1;whiteSpace=wrap;html=1;" parent="1" vertex="1">
          <mxGeometry x="70" y="170" width="170" height="60" as="geometry" />
        </mxCell>
        <mxCell id="JaR2kYF_nCtYXL50B3zv-2" value="场景按钮&amp;nbsp;&lt;span style=&quot;color: rgb(17 , 31 , 44) ; font-family: &amp;#34;helvetica neue&amp;#34; ; font-size: 14px&quot;&gt;Button&lt;/span&gt;&lt;br&gt;CBOH_BUTTON_3CH" style="rounded=1;whiteSpace=wrap;html=1;" parent="1" vertex="1">
          <mxGeometry x="318" y="170" width="170" height="60" as="geometry" />
        </mxCell>
        <mxCell id="JaR2kYF_nCtYXL50B3zv-3" value="场景按钮事件&amp;nbsp;&lt;span style=&quot;color: rgb(17 , 31 , 44) ; font-family: &amp;#34;helvetica neue&amp;#34; ; font-size: 14px&quot;&gt;Buttonevent&lt;/span&gt;&lt;br&gt;CBOH_EVENT_3CH" style="rounded=1;whiteSpace=wrap;html=1;" parent="1" vertex="1">
          <mxGeometry x="318" y="280" width="170" height="60" as="geometry" />
        </mxCell>
        <mxCell id="JaR2kYF_nCtYXL50B3zv-4" value="场景分组&amp;nbsp;&lt;span style=&quot;color: rgb(17 , 31 , 44) ; font-family: &amp;#34;helvetica neue&amp;#34; ; font-size: 14px&quot;&gt;Screengroup&lt;/span&gt;&lt;br&gt;CBOH_SCREENGROUP_3CH" style="rounded=1;whiteSpace=wrap;html=1;" parent="1" vertex="1">
          <mxGeometry x="667" y="60" width="180" height="60" as="geometry" />
        </mxCell>
        <mxCell id="JaR2kYF_nCtYXL50B3zv-5" value="场景&amp;nbsp;&lt;span style=&quot;color: rgb(17 , 31 , 44) ; font-family: &amp;#34;helvetica neue&amp;#34; ; font-size: 14px&quot;&gt;Screen&lt;/span&gt;&lt;br&gt;CBOH_SCREEN_3CH" style="rounded=1;whiteSpace=wrap;html=1;" parent="1" vertex="1">
          <mxGeometry x="317" y="60" width="173" height="60" as="geometry" />
        </mxCell>
        <mxCell id="JaR2kYF_nCtYXL50B3zv-6" value="台位状态 &lt;font color=&quot;#111f2c&quot; face=&quot;helvetica neue&quot;&gt;&lt;span style=&quot;font-size: 14px&quot;&gt;Storetables&lt;/span&gt;&lt;/font&gt;&lt;br&gt;CBOH_STORETABLES_3CH" style="rounded=1;whiteSpace=wrap;html=1;" parent="1" vertex="1">
          <mxGeometry x="557" y="170" width="180" height="60" as="geometry" />
        </mxCell>
        <mxCell id="JaR2kYF_nCtYXL50B3zv-7" value="分配门店 StoreGroup&lt;br&gt;CBOH_STOREGROUP_3CH" style="rounded=1;whiteSpace=wrap;html=1;" parent="1" vertex="1">
          <mxGeometry x="787" y="170" width="180" height="60" as="geometry" />
        </mxCell>
        <mxCell id="JaR2kYF_nCtYXL50B3zv-8" value="1" style="endArrow=open;html=1;endSize=12;startArrow=diamondThin;startSize=14;startFill=1;edgeStyle=orthogonalEdgeStyle;align=left;verticalAlign=bottom;entryX=0.5;entryY=0;entryDx=0;entryDy=0;exitX=0.25;exitY=1;exitDx=0;exitDy=0;" parent="1" source="JaR2kYF_nCtYXL50B3zv-4" target="JaR2kYF_nCtYXL50B3zv-6" edge="1">
          <mxGeometry x="-0.6521" y="8" relative="1" as="geometry">
            <mxPoint x="687" y="120" as="sourcePoint" />
            <mxPoint x="847" y="120" as="targetPoint" />
            <Array as="points">
              <mxPoint x="712" y="150" />
              <mxPoint x="647" y="150" />
            </Array>
            <mxPoint as="offset" />
          </mxGeometry>
        </mxCell>
        <mxCell id="9U2wOZXSPxH79WN0-C8b-2" value="" style="endArrow=classic;html=1;exitX=0;exitY=1;exitDx=0;exitDy=0;entryX=1;entryY=0;entryDx=0;entryDy=0;" parent="1" source="JaR2kYF_nCtYXL50B3zv-6" edge="1" target="JaR2kYF_nCtYXL50B3zv-3">
          <mxGeometry width="50" height="50" relative="1" as="geometry">
            <mxPoint x="557" y="206" as="sourcePoint" />
            <mxPoint x="489" y="200" as="targetPoint" />
          </mxGeometry>
        </mxCell>
        <mxCell id="9U2wOZXSPxH79WN0-C8b-3" value="台位默认状态 &lt;font color=&quot;#111f2c&quot; face=&quot;helvetica neue&quot;&gt;&lt;span style=&quot;font-size: 14px&quot;&gt;SeatdefaultState&lt;/span&gt;&lt;/font&gt;&lt;br&gt;CBOH_THESAME_3CH" style="rounded=1;whiteSpace=wrap;html=1;" parent="1" vertex="1">
          <mxGeometry x="542" y="280" width="210" height="60" as="geometry" />
        </mxCell>
        <mxCell id="9U2wOZXSPxH79WN0-C8b-4" value="" style="endArrow=classic;html=1;exitX=0.5;exitY=1;exitDx=0;exitDy=0;" parent="1" source="JaR2kYF_nCtYXL50B3zv-6" target="9U2wOZXSPxH79WN0-C8b-3" edge="1">
          <mxGeometry width="50" height="50" relative="1" as="geometry">
            <mxPoint x="747" y="330" as="sourcePoint" />
            <mxPoint x="797" y="280" as="targetPoint" />
          </mxGeometry>
        </mxCell>
        <mxCell id="9U2wOZXSPxH79WN0-C8b-5" value="" style="endArrow=classic;html=1;exitX=1;exitY=0.5;exitDx=0;exitDy=0;" parent="1" source="JaR2kYF_nCtYXL50B3zv-5" target="JaR2kYF_nCtYXL50B3zv-4" edge="1">
          <mxGeometry width="50" height="50" relative="1" as="geometry">
            <mxPoint x="747" y="180" as="sourcePoint" />
            <mxPoint x="797" y="130" as="targetPoint" />
          </mxGeometry>
        </mxCell>
        <mxCell id="9U2wOZXSPxH79WN0-C8b-6" value="场景类型 &lt;font color=&quot;#111f2c&quot; face=&quot;helvetica neue&quot;&gt;&lt;span style=&quot;font-size: 14px&quot;&gt;无实体-预置数据&lt;/span&gt;&lt;/font&gt;&lt;br&gt;CBOH_SCREENTYPE_3CH" style="rounded=1;whiteSpace=wrap;html=1;" parent="1" vertex="1">
          <mxGeometry x="70" y="60" width="178" height="60" as="geometry" />
        </mxCell>
        <mxCell id="9U2wOZXSPxH79WN0-C8b-7" value="" style="endArrow=classic;html=1;" parent="1" source="JaR2kYF_nCtYXL50B3zv-5" target="9U2wOZXSPxH79WN0-C8b-6" edge="1">
          <mxGeometry width="50" height="50" relative="1" as="geometry">
            <mxPoint x="747" y="20" as="sourcePoint" />
            <mxPoint x="420" y="20" as="targetPoint" />
          </mxGeometry>
        </mxCell>
        <mxCell id="9U2wOZXSPxH79WN0-C8b-9" value="" style="endArrow=classic;html=1;entryX=0.5;entryY=0;entryDx=0;entryDy=0;exitX=0.5;exitY=1;exitDx=0;exitDy=0;" parent="1" target="JaR2kYF_nCtYXL50B3zv-3" edge="1" source="JaR2kYF_nCtYXL50B3zv-2">
          <mxGeometry width="50" height="50" relative="1" as="geometry">
            <mxPoint x="402" y="120" as="sourcePoint" />
            <mxPoint x="707" y="110" as="targetPoint" />
          </mxGeometry>
        </mxCell>
        <mxCell id="9U2wOZXSPxH79WN0-C8b-11" value="" style="endArrow=classic;html=1;exitX=0;exitY=0.5;exitDx=0;exitDy=0;entryX=1;entryY=0.5;entryDx=0;entryDy=0;" parent="1" source="JaR2kYF_nCtYXL50B3zv-2" target="JaR2kYF_nCtYXL50B3zv-1" edge="1">
          <mxGeometry width="50" height="50" relative="1" as="geometry">
            <mxPoint x="657" y="40" as="sourcePoint" />
            <mxPoint x="707" y="-10" as="targetPoint" />
          </mxGeometry>
        </mxCell>
        <mxCell id="C5KM7StTfUHFbqIHS69--1" value="1" style="endArrow=open;html=1;endSize=12;startArrow=diamondThin;startSize=14;startFill=1;edgeStyle=orthogonalEdgeStyle;align=left;verticalAlign=bottom;exitX=0.75;exitY=1;exitDx=0;exitDy=0;entryX=0.5;entryY=0;entryDx=0;entryDy=0;" edge="1" parent="1" source="JaR2kYF_nCtYXL50B3zv-4" target="JaR2kYF_nCtYXL50B3zv-7">
          <mxGeometry x="-0.6801" y="8" relative="1" as="geometry">
            <mxPoint x="610" y="170" as="sourcePoint" />
            <mxPoint x="770" y="170" as="targetPoint" />
            <Array as="points">
              <mxPoint x="802" y="150" />
              <mxPoint x="877" y="150" />
            </Array>
            <mxPoint as="offset" />
          </mxGeometry>
        </mxCell>
        <mxCell id="C5KM7StTfUHFbqIHS69--4" value="1" style="endArrow=open;html=1;endSize=12;startArrow=diamondThin;startSize=14;startFill=0;edgeStyle=orthogonalEdgeStyle;align=left;verticalAlign=bottom;exitX=0.5;exitY=1;exitDx=0;exitDy=0;" edge="1" parent="1" source="JaR2kYF_nCtYXL50B3zv-5" target="JaR2kYF_nCtYXL50B3zv-2">
          <mxGeometry x="-0.2078" y="7" relative="1" as="geometry">
            <mxPoint x="420" y="150" as="sourcePoint" />
            <mxPoint x="580" y="150" as="targetPoint" />
            <mxPoint as="offset" />
          </mxGeometry>
        </mxCell>
      </root>
    </mxGraphModel>
  </diagram>
</mxfile>
